# xmcd
#
# Track frame offsets: 
#        150
#        16943
#        34907
#        60939
#        80476
#        108120
#        122155
#        143164
#        157410
#
# Disc length: 2429 seconds
#
# Revision: 0
# Processed by: cddbd v1.5.2PL0 Copyright (c) Steve Scherf et al.
# Submitted via: ExactAudioCopy v1.0b1
#
DISCID=70097b09
DTITLE=Lars Haavard Haugen - Six strings and the truth
DYEAR=2011
DGENRE=Country-rock
TTITLE0=A walk in the park
TTITLE1=How low can you go?
TTITLE2=Urban twang (slight return)
TTITLE3=Six strings and the truth
TTITLE4=The drone
TTITLE5=All alone
TTITLE6=Landscapes
TTITLE7=Pick it up!
TTITLE8=Closing time
EXTD=
EXTT0=
EXTT1=
EXTT2=
EXTT3=
EXTT4=
EXTT5=
EXTT6=
EXTT7=
EXTT8=
PLAYORDER=
